<svg viewBox="0 0 48 48" xmlns="http://www.w3.org/2000/svg"><rect x="1" y="1" width="46" height="46" rx="11" fill="#EAF2EC"/><path d="M10.5 41.5 L10.5 24 Q10.5 15.5 24 15.5 Q37.5 15.5 37.5 24 L37.5 41.5 Z" fill="#7C5132"/><path d="M15.5 41.5 L15.5 25.5 Q15.5 20.5 24 20.5 Q32.5 20.5 32.5 25.5 L32.5 41.5 Z" fill="#EDAC53"/><rect x="13" y="40.2" width="22" height="2.6" rx="1.2" fill="#5F3D26"/><ellipse cx="24" cy="36.8" rx="4.8" ry="4.4" fill="#9BA4AA"/><circle cx="19.2" cy="26.1" r="2.8" fill="#A8B1B6"/><circle cx="28.8" cy="26.1" r="2.8" fill="#A8B1B6"/><circle cx="19.3" cy="26.3" r="1.25" fill="#CBB7BF"/><circle cx="28.7" cy="26.3" r="1.25" fill="#CBB7BF"/><circle cx="24" cy="29.8" r="5.1" fill="#A8B1B6"/><ellipse cx="24" cy="30.3" rx="1.8" ry="2.2" fill="#3B3B3B"/><circle cx="21.8" cy="28.5" r="0.85" fill="#3B3B3B"/><circle cx="26.2" cy="28.5" r="0.85" fill="#3B3B3B"/><path d="M4 19.5 Q4 4 24 4 Q44 4 44 19.5 q-5 4.2 -10 0 q-5 4.2 -10 0 q-5 4.2 -10 0 q-5 4.2 -10 0 Z" fill="#46896A"/><g transform="translate(24 7.5) rotate(0) scale(1.15)"><path d="M0 1 Q1.1 0.2 1.2 -1.3 Q2.6 -1.5 3.9 -2.4 Q3.1 -2.1 3.3 -3.5 Q3.5 -4.5 2.3 -4.3 Q2.2 -5.5 1 -6.1 Q0.5 -6.8 0 -7.1 Q-0.5 -6.8 -1 -6.1 Q-2.2 -5.5 -2.3 -4.3 Q-3.5 -4.5 -3.3 -3.5 Q-3.1 -2.1 -3.9 -2.4 Q-2.6 -1.5 -1.2 -1.3 Q-1.1 0.2 0 1 Z" fill="#5BA079"/></g><g transform="translate(16 10.5) rotate(-22) scale(1.0)"><path d="M0 1 Q1.1 0.2 1.2 -1.3 Q2.6 -1.5 3.9 -2.4 Q3.1 -2.1 3.3 -3.5 Q3.5 -4.5 2.3 -4.3 Q2.2 -5.5 1 -6.1 Q0.5 -6.8 0 -7.1 Q-0.5 -6.8 -1 -6.1 Q-2.2 -5.5 -2.3 -4.3 Q-3.5 -4.5 -3.3 -3.5 Q-3.1 -2.1 -3.9 -2.4 Q-2.6 -1.5 -1.2 -1.3 Q-1.1 0.2 0 1 Z" fill="#54996F"/></g><g transform="translate(32 10.5) rotate(22) scale(1.0)"><path d="M0 1 Q1.1 0.2 1.2 -1.3 Q2.6 -1.5 3.9 -2.4 Q3.1 -2.1 3.3 -3.5 Q3.5 -4.5 2.3 -4.3 Q2.2 -5.5 1 -6.1 Q0.5 -6.8 0 -7.1 Q-0.5 -6.8 -1 -6.1 Q-2.2 -5.5 -2.3 -4.3 Q-3.5 -4.5 -3.3 -3.5 Q-3.1 -2.1 -3.9 -2.4 Q-2.6 -1.5 -1.2 -1.3 Q-1.1 0.2 0 1 Z" fill="#54996F"/></g></svg>